<svg width="350" height="350" viewBox="0 0 350 350" fill="none" xmlns="http://www.w3.org/2000/svg">
<rect width="350" height="350" rx="30" fill="url(#paint0_linear_1_18)"/>
<g filter="url(#filter0_d_1_18)">
<path d="M113.1 75.2539C121.063 74.114 132.227 76.7167 146.653 84.9987L149.391 86.6228L151.002 87.6316L154.998 86.7943C170.238 83.8435 185.873 83.5704 201.206 85.9873L205.796 86.7943L209.783 87.6316L211.404 86.6228C225.346 78.1491 236.44 74.8202 244.846 75.0421L246.497 75.1228L247.977 75.2943L248.742 75.4355L249.245 75.5465L250.695 76.0206C253.068 77.0037 254.977 78.8586 256.03 81.2057C260.15 90.4027 261.537 100.594 260.027 110.561L259.554 113.254L259.091 115.232L260.329 116.876C266.107 124.896 269.691 134.308 270.698 144.183L270.93 147.159L271 149.903C271 188.791 254.299 209.249 224.249 217.289L221.783 217.905L220.454 218.197L220.595 219.821L220.675 221.405L220.716 225.087L220.695 227.236L220.665 265.912C220.665 268.383 219.76 270.768 218.121 272.614C216.483 274.461 214.225 275.64 211.776 275.929L210.598 276H150.196C147.731 276 145.351 275.093 143.508 273.451C141.666 271.809 140.488 269.546 140.2 267.093L140.129 265.912V258.508C121.828 261.131 109.627 254.231 98.7543 239.563L93.3684 231.836C90.5497 227.841 88.788 225.995 87.439 225.339L86.9558 225.148C84.4633 224.336 82.3849 222.582 81.1624 220.259C79.9399 217.937 79.6696 215.227 80.4089 212.708C81.1483 210.188 82.839 208.057 85.1218 206.767C87.4045 205.477 90.0994 205.13 92.6335 205.799C99.0965 207.696 103.445 211.529 108.439 218.298L113.855 226.056C121.506 236.94 127.546 240.774 140.119 238.07L140.129 231.231L139.948 229.536C139.651 226.776 139.58 223.995 139.737 221.224L139.908 219.357L140.099 218.147L139.012 217.905C109.053 210.742 91.6671 191.949 89.9356 155.976L89.8349 152.849L89.7947 149.903C89.8063 138.974 92.9816 128.283 98.9355 119.126L100.466 116.886L101.694 115.242L101.241 113.265C99.4259 104.403 99.9287 95.2219 102.701 86.6127L103.707 83.768L104.774 81.2158C105.825 78.8706 107.73 77.0159 110.1 76.0307L111.549 75.5566L113.1 75.2539Z" fill="white"/>
<path d="M113.1 75.2539C121.063 74.114 132.227 76.7167 146.653 84.9987L149.391 86.6228L151.002 87.6316L154.998 86.7943C170.238 83.8435 185.873 83.5704 201.206 85.9873L205.796 86.7943L209.783 87.6316L211.404 86.6228C225.346 78.1491 236.44 74.8202 244.846 75.0421L246.497 75.1228L247.977 75.2943L248.742 75.4355L249.245 75.5465L250.695 76.0206C253.068 77.0037 254.977 78.8586 256.03 81.2057C260.15 90.4027 261.537 100.594 260.027 110.561L259.554 113.254L259.091 115.232L260.329 116.876C266.107 124.896 269.691 134.308 270.698 144.183L270.93 147.159L271 149.903C271 188.791 254.299 209.249 224.249 217.289L221.783 217.905L220.454 218.197L220.595 219.821L220.675 221.405L220.716 225.087L220.695 227.236L220.665 265.912C220.665 268.383 219.76 270.768 218.121 272.614C216.483 274.461 214.225 275.64 211.776 275.929L210.598 276H150.196C147.731 276 145.351 275.093 143.508 273.451C141.666 271.809 140.488 269.546 140.2 267.093L140.129 265.912V258.508C121.828 261.131 109.627 254.231 98.7543 239.563L93.3684 231.836C90.5497 227.841 88.788 225.995 87.439 225.339L86.9558 225.148C84.4633 224.336 82.3849 222.582 81.1624 220.259C79.9399 217.937 79.6696 215.227 80.4089 212.708C81.1483 210.188 82.839 208.057 85.1218 206.767C87.4045 205.477 90.0994 205.13 92.6335 205.799C99.0965 207.696 103.445 211.529 108.439 218.298L113.855 226.056C121.506 236.94 127.546 240.774 140.119 238.07L140.129 231.231L139.948 229.536C139.651 226.776 139.58 223.995 139.737 221.224L139.908 219.357L140.099 218.147L139.012 217.905C109.053 210.742 91.6671 191.949 89.9356 155.976L89.8349 152.849L89.7947 149.903C89.8063 138.974 92.9816 128.283 98.9355 119.126L100.466 116.886L101.694 115.242L101.241 113.265C99.4259 104.403 99.9287 95.2219 102.701 86.6127L103.707 83.768L104.774 81.2158C105.825 78.8706 107.73 77.0159 110.1 76.0307L111.549 75.5566L113.1 75.2539Z" stroke="black"/>
</g>
<defs>
<filter id="filter0_d_1_18" x="78" y="75" width="207" height="217" filterUnits="userSpaceOnUse" color-interpolation-filters="sRGB">
<feFlood flood-opacity="0" result="BackgroundImageFix"/>
<feColorMatrix in="SourceAlpha" type="matrix" values="0 0 0 0 0 0 0 0 0 0 0 0 0 0 0 0 0 0 127 0" result="hardAlpha"/>
<feOffset dx="6" dy="8"/>
<feGaussianBlur stdDeviation="4"/>
<feComposite in2="hardAlpha" operator="out"/>
<feColorMatrix type="matrix" values="0 0 0 0 0 0 0 0 0 0 0 0 0 0 0 0 0 0 0.25 0"/>
<feBlend mode="normal" in2="BackgroundImageFix" result="effect1_dropShadow_1_18"/>
<feBlend mode="normal" in="SourceGraphic" in2="effect1_dropShadow_1_18" result="shape"/>
</filter>
<linearGradient id="paint0_linear_1_18" x1="-71.5" y1="-61" x2="350" y2="391.406" gradientUnits="userSpaceOnUse">
<stop offset="0.0625" stop-color="#67D1E9"/>
<stop offset="0.567005" stop-color="#006A7B"/>
<stop offset="1" stop-color="#00404E"/>
</linearGradient>
</defs>
</svg>
