<svg width="350" height="350" viewBox="0 0 350 350" fill="none" xmlns="http://www.w3.org/2000/svg">
<rect width="350" height="350" rx="30" fill="url(#paint0_linear_1_16)"/>
<g filter="url(#filter0_d_1_16)">
<path d="M122.806 274H83.6219V141.806H122.806V274ZM103.193 123.773C90.663 123.773 80.5 112.9 80.5 99.7738C80.5 93.4686 82.8908 87.4216 87.1465 82.9632C91.4022 78.5047 97.1742 76 103.193 76C109.211 76 114.983 78.5047 119.239 82.9632C123.494 87.4216 125.885 93.4686 125.885 99.7738C125.885 112.9 115.718 123.773 103.193 123.773ZM269.458 274H230.358V209.649C230.358 194.312 230.063 174.644 209.986 174.644C189.614 174.644 186.492 191.307 186.492 208.544V274H147.35V141.806H184.931V159.838H185.479C190.711 149.452 203.489 138.491 222.554 138.491C262.21 138.491 269.5 165.849 269.5 201.384V274H269.458Z" fill="white"/>
<path d="M122.806 274H83.6219V141.806H122.806V274ZM103.193 123.773C90.663 123.773 80.5 112.9 80.5 99.7738C80.5 93.4686 82.8908 87.4216 87.1465 82.9632C91.4022 78.5047 97.1742 76 103.193 76C109.211 76 114.983 78.5047 119.239 82.9632C123.494 87.4216 125.885 93.4686 125.885 99.7738C125.885 112.9 115.718 123.773 103.193 123.773ZM269.458 274H230.358V209.649C230.358 194.312 230.063 174.644 209.986 174.644C189.614 174.644 186.492 191.307 186.492 208.544V274H147.35V141.806H184.931V159.838H185.479C190.711 149.452 203.489 138.491 222.554 138.491C262.21 138.491 269.5 165.849 269.5 201.384V274H269.458Z" stroke="black"/>
</g>
<defs>
<filter id="filter0_d_1_16" x="78.5" y="76" width="205" height="214" filterUnits="userSpaceOnUse" color-interpolation-filters="sRGB">
<feFlood flood-opacity="0" result="BackgroundImageFix"/>
<feColorMatrix in="SourceAlpha" type="matrix" values="0 0 0 0 0 0 0 0 0 0 0 0 0 0 0 0 0 0 127 0" result="hardAlpha"/>
<feOffset dx="6" dy="8"/>
<feGaussianBlur stdDeviation="4"/>
<feComposite in2="hardAlpha" operator="out"/>
<feColorMatrix type="matrix" values="0 0 0 0 0 0 0 0 0 0 0 0 0 0 0 0 0 0 0.25 0"/>
<feBlend mode="normal" in2="BackgroundImageFix" result="effect1_dropShadow_1_16"/>
<feBlend mode="normal" in="SourceGraphic" in2="effect1_dropShadow_1_16" result="shape"/>
</filter>
<linearGradient id="paint0_linear_1_16" x1="-71.5" y1="-61" x2="350" y2="391.406" gradientUnits="userSpaceOnUse">
<stop offset="0.0625" stop-color="#67D1E9"/>
<stop offset="0.567005" stop-color="#006A7B"/>
<stop offset="1" stop-color="#00404E"/>
</linearGradient>
</defs>
</svg>
